<svg xmlns="http://www.w3.org/2000/svg" xmlns:xlink="http://www.w3.org/1999/xlink" width="217.189" height="177.829" viewBox="0 0 217.189 177.829"><defs><linearGradient id="a" x1="0.445" y1="-0.107" x2="0.693" y2="1.045" gradientUnits="objectBoundingBox"><stop offset="0" stop-color="#77c4ff"/><stop offset="1" stop-color="#0957be"/></linearGradient></defs><path d="M117.369-123.165q-.828,9.522-1.656,22.253T114.161-74.52q-.725,13.662-1.035,27.014t-.1,24.219a152.131,152.131,0,0,0,1.242,18.113q1.035,7.245,3.312,8.487a12.838,12.838,0,0,1-3.829,5.071,29.114,29.114,0,0,1-6.21,4.036,43.49,43.49,0,0,1-7.038,2.691,23.447,23.447,0,0,1-6.313,1.035q-7.659.207-11.8-7.555t-5.8-20.6a200.307,200.307,0,0,1-1.345-29.187q.31-16.353,1.345-33.12H72.657A5.385,5.385,0,0,1,71-74.52H69.138a4.8,4.8,0,0,1-.932-.1,5.817,5.817,0,0,0-1.139-.1,6.279,6.279,0,0,1-1.863-.207q-1.035,0-2.174-.1a20.586,20.586,0,0,1-2.174-.311,10.532,10.532,0,0,0-2.07-.207,10.531,10.531,0,0,1-2.07-.207Q52.371-76.383,48.231-77t-7.245-1.035a11.413,11.413,0,0,0-2.277-.414q-.621,13.041-.931,25.772t0,22.873a142.832,142.832,0,0,0,1.346,16.871q1.035,6.728,3.1,7.97A13.188,13.188,0,0,1,38.5.1,26.808,26.808,0,0,1,32.4,4.14a43.489,43.489,0,0,1-7.038,2.691,23.447,23.447,0,0,1-6.313,1.035Q12.213,8.073,8.177,1.76t-6-16.871A146.6,146.6,0,0,1,0-39.537Q-.207-53.406.518-68.31t1.966-29.7q1.242-14.8,2.277-27.427t1.345-22.046q.31-9.418-.725-13.352,11.178-1.863,19.458.414a29.85,29.85,0,0,1,6.831,3,19.438,19.438,0,0,1,5.8,5.382,25.356,25.356,0,0,1,3.829,8.487,35.427,35.427,0,0,1,.725,12.109q-.621,8.694-1.346,19.665T39.33-88.8a7.677,7.677,0,0,0,1.552.311,7.567,7.567,0,0,1,1.967.517q3.1.621,7.038,1.346t8.073,1.552q1.035.207,2.07.31t2.07.311q1.035.207,2.07.311t2.07.31a2.054,2.054,0,0,0,.932.207,2.054,2.054,0,0,1,.931.207,6.28,6.28,0,0,1,1.863.207,5.385,5.385,0,0,1,1.656.207h1.449a3.4,3.4,0,0,1,.828.1,3.4,3.4,0,0,0,.828.1h2.484q.828-12.006,1.863-23.184t1.656-20.493q.621-9.315.725-16.146a40.128,40.128,0,0,0-.725-9.936q11.178-1.863,19.458.414a29.85,29.85,0,0,1,6.831,3,19.439,19.439,0,0,1,5.8,5.382,25.357,25.357,0,0,1,3.83,8.487A35.427,35.427,0,0,1,117.369-123.165Zm99.774,60.237a66.24,66.24,0,0,0-2.691,6.107q-2.07,5.072-5.692,11.9t-8.487,14.49a84.942,84.942,0,0,1-11.178,14.076A59.554,59.554,0,0,1,175.226-5.8,30.63,30.63,0,0,1,158.769-2.07q-8.28-.207-12.42-5.486A29.612,29.612,0,0,1,140.76-20.7a73.308,73.308,0,0,1-.932-17.285q.518-9.419,1.553-17.906t1.966-14.9q.932-6.417.311-8.694a42.229,42.229,0,0,1,15.111.207,25.343,25.343,0,0,1,5.279,1.863A13.483,13.483,0,0,1,168.5-74a13.2,13.2,0,0,1,2.691,5.278,19.753,19.753,0,0,1,.207,7.659q-1.656,11.8-2.277,20.7a54.461,54.461,0,0,0,.414,13.972q1.035,5.072,3.933,6.21t8.28-2.588A54.308,54.308,0,0,0,192.51-33.741a140.441,140.441,0,0,0,9.522-14.076,172.493,172.493,0,0,0,9.108-17.388ZM159.908-91.494a15.1,15.1,0,0,1-11.044-4.554,14.9,14.9,0,0,1-4.585-10.971,14.807,14.807,0,0,1,4.585-11.075,15.284,15.284,0,0,1,11.044-4.45,15.284,15.284,0,0,1,11.044,4.45,14.807,14.807,0,0,1,4.585,11.075,14.9,14.9,0,0,1-4.585,10.971A15.1,15.1,0,0,1,159.908-91.494Z" transform="translate(0.046 161.677)" fill="url(#a)"/></svg>