<?xml version="1.0" standalone="no"?>
<!DOCTYPE svg PUBLIC "-//W3C//DTD SVG 20010904//EN"
 "http://www.w3.org/TR/2001/REC-SVG-20010904/DTD/svg10.dtd">
<svg version="1.0" xmlns="http://www.w3.org/2000/svg"
 width="988.000000pt" height="988.000000pt" viewBox="0 0 988.000000 988.000000"
 preserveAspectRatio="xMidYMid meet">
<metadata>
Created by potrace 1.11, written by Peter Selinger 2001-2013
</metadata>
<g transform="translate(0.000000,988.000000) scale(0.100000,-0.100000)"
fill="#000000" stroke="none">
<path d="M519 8976 c-2 -2 -38 -7 -79 -10 -106 -9 -163 -16 -178 -21 -9 -3
-11 -17 -7 -47 4 -23 8 -45 10 -49 12 -18 26 -502 16 -523 -2 -5 -5 -50 -6
-100 -2 -50 -6 -145 -10 -211 -4 -66 -8 -147 -10 -180 -2 -33 -6 -96 -10 -140
-3 -44 -8 -111 -11 -150 -2 -38 -6 -95 -9 -125 -5 -67 -12 -152 -19 -245 -3
-38 -8 -95 -11 -125 -5 -59 -13 -146 -21 -250 -3 -36 -7 -87 -9 -115 -2 -27
-6 -72 -9 -100 -3 -27 -8 -88 -11 -135 -3 -47 -8 -107 -11 -135 -2 -27 -6 -77
-9 -110 -2 -33 -6 -87 -9 -120 -3 -33 -8 -91 -11 -130 -3 -38 -8 -95 -10 -125
-3 -30 -7 -91 -10 -135 -3 -44 -7 -100 -10 -125 -3 -25 -7 -90 -10 -145 -3
-55 -7 -136 -10 -180 -11 -158 -17 -266 -30 -525 -14 -276 -19 -504 -19 -995
0 -483 4 -668 19 -820 2 -22 7 -69 10 -105 11 -112 15 -144 20 -182 3 -21 7
-53 9 -71 4 -33 24 -162 32 -207 3 -14 7 -38 10 -55 2 -16 7 -41 11 -55 3 -14
8 -34 10 -45 15 -84 98 -353 114 -369 5 -6 9 -16 9 -24 0 -14 97 -213 109
-222 3 -3 13 -18 21 -35 22 -44 149 -169 200 -198 47 -27 111 -50 169 -62 39
-8 193 -8 231 0 14 3 41 8 60 11 19 3 60 12 90 21 30 9 57 17 60 18 3 0 30 9
60 20 30 11 57 20 60 20 71 19 289 133 365 192 61 48 109 89 124 107 9 10 26
29 39 42 12 13 22 25 22 28 0 3 13 27 30 53 16 26 30 50 30 53 0 4 -11 20 -26
36 -28 32 -49 75 -71 148 -15 50 -17 60 -29 126 -4 19 -8 44 -10 55 -2 11 -6
38 -9 60 -2 22 -7 63 -11 90 -9 69 -12 98 -18 185 -4 41 -9 100 -11 130 -17
170 -28 1162 -14 1213 4 15 4 27 0 27 -4 0 -6 15 -5 33 2 17 6 122 9 232 12
382 23 701 30 830 3 39 5 96 5 128 0 55 1 57 28 57 15 0 41 -4 59 -9 18 -5 60
-12 95 -16 35 -3 70 -8 78 -10 8 -3 33 -7 55 -10 22 -2 51 -7 65 -10 14 -2 48
-7 75 -11 28 -3 61 -8 75 -10 14 -2 43 -6 65 -8 22 -3 51 -8 65 -10 14 -3 43
-8 65 -11 22 -3 50 -7 62 -9 12 -3 57 -7 100 -11 43 -3 89 -8 103 -11 91 -17
450 -44 635 -47 l100 -2 -3 -60 c-2 -69 -9 -195 -17 -310 -8 -130 -18 -402
-19 -507 -1 -54 -3 -98 -6 -98 -12 0 -18 -985 -7 -1220 4 -85 9 -177 12 -205
2 -27 7 -84 10 -125 6 -76 10 -118 20 -200 3 -25 7 -65 10 -90 2 -25 7 -58 10
-75 2 -16 7 -48 10 -70 3 -22 7 -51 10 -65 5 -25 11 -57 20 -108 10 -58 74
-302 85 -322 6 -11 8 -20 6 -20 -3 0 4 -21 15 -47 12 -27 22 -55 24 -64 7 -33
89 -195 132 -260 41 -64 112 -141 160 -174 28 -20 119 -65 141 -70 9 -3 37 -9
62 -16 46 -11 305 -2 305 11 0 1 11 3 25 6 39 7 163 44 182 55 10 5 23 9 28 9
15 0 204 81 210 90 3 4 15 10 27 14 22 7 165 97 189 119 7 7 27 23 45 37 18
14 44 38 58 54 15 16 31 34 36 40 15 16 60 80 60 86 1 3 6 15 14 28 11 21 10
26 -13 46 -22 22 -82 126 -72 126 3 0 -1 15 -9 33 -7 17 -16 49 -19 71 -4 21
-8 42 -11 45 -2 4 -7 30 -10 58 -3 27 -7 59 -10 70 -2 12 -7 52 -10 90 -4 37
-9 84 -11 103 -2 19 -6 69 -9 110 -3 41 -8 118 -12 170 -16 216 -6 1801 12
1829 3 6 1 11 -5 11 -6 0 -8 5 -4 11 3 6 8 59 9 117 5 135 14 349 20 472 11
189 15 277 20 375 2 55 6 136 9 180 3 44 8 125 11 180 8 139 14 236 20 330 2
44 7 118 10 165 3 47 8 114 10 150 4 58 9 136 20 313 2 33 6 93 10 135 8 108
14 185 20 272 3 41 7 94 9 117 2 23 8 84 13 135 10 112 10 395 0 458 -3 25 -9
63 -13 85 -23 144 -116 362 -205 479 -178 234 -484 383 -849 412 -109 9 -230
10 -230 2 0 -4 -11 -3 -24 2 -13 5 -26 7 -28 5 -2 -2 -33 -7 -68 -10 -36 -3
-101 -10 -145 -15 -44 -6 -85 -10 -92 -10 -9 0 -10 -7 -4 -23 30 -79 33 -558
6 -997 -10 -166 -20 -309 -31 -445 -3 -44 -8 -100 -9 -125 -2 -25 -6 -79 -10
-120 -3 -41 -8 -95 -10 -120 -1 -25 -6 -74 -10 -110 -3 -36 -8 -87 -10 -115
-2 -27 -4 -50 -5 -50 -1 0 -3 -22 -5 -50 -1 -27 -6 -81 -9 -120 -4 -38 -9 -97
-11 -130 -2 -33 -7 -85 -10 -115 -3 -30 -8 -82 -10 -115 -3 -33 -7 -85 -9
-115 -3 -30 -8 -95 -11 -145 -10 -145 -16 -218 -24 -277 -2 -19 -414 16 -506
42 -16 5 -55 11 -85 15 -30 3 -66 7 -80 9 -27 5 -80 13 -145 22 -22 4 -49 8
-60 10 -11 2 -31 6 -45 9 -14 3 -36 7 -50 10 -14 3 -38 8 -55 10 -16 3 -64 13
-105 21 -41 8 -88 17 -105 20 -16 2 -41 6 -55 9 -14 4 -38 8 -55 11 -16 2 -41
7 -55 10 -14 3 -36 8 -50 10 -21 3 -72 15 -235 53 -30 7 -30 7 -28 71 2 73 9
231 18 365 3 50 8 135 11 190 6 114 10 166 19 315 4 58 9 130 10 160 2 30 4
55 5 55 1 0 3 36 5 80 2 44 6 114 9 155 10 121 16 200 21 280 3 41 8 118 11
170 4 52 7 123 8 157 1 35 3 63 6 63 6 0 3 132 -5 225 -6 68 -8 83 -21 143 -3
15 -7 36 -9 47 -25 146 -145 382 -252 496 -136 145 -392 280 -598 315 -22 4
-49 8 -60 11 -81 16 -443 31 -456 19z"/>
<path d="M7288 7204 c-3 -3 -36 -6 -74 -8 -38 -2 -69 -5 -69 -6 0 -1 -11 -3
-25 -6 -14 -2 -58 -16 -98 -30 -165 -59 -314 -194 -390 -354 -59 -126 -79
-255 -59 -400 13 -99 9 -83 44 -170 27 -69 38 -90 45 -90 5 0 8 -6 8 -13 0
-28 163 -200 201 -212 10 -4 19 -10 19 -14 0 -4 33 -22 73 -40 94 -44 106 -49
142 -56 17 -3 41 -8 55 -10 33 -7 209 -7 238 0 12 3 32 7 43 10 129 28 270
113 365 220 62 70 129 180 140 230 3 17 10 35 14 40 32 41 30 347 -2 408 -5
10 -11 28 -13 39 -9 44 -119 224 -145 236 -3 1 -29 24 -59 52 -29 27 -66 55
-82 62 -16 7 -29 17 -29 21 0 5 -4 5 -10 2 -5 -3 -10 -2 -10 3 0 19 -163 69
-247 76 -28 2 -56 7 -61 10 -5 3 -12 3 -14 0z"/>
<path d="M6718 5265 c-2 -2 -32 -6 -68 -9 -115 -12 -106 0 -106 -139 -1 -112
-4 -161 -20 -257 -3 -19 -7 -51 -9 -70 -4 -36 -12 -93 -20 -139 -2 -14 -6 -48
-10 -76 -3 -27 -7 -59 -9 -70 -2 -11 -7 -49 -11 -85 -3 -36 -8 -72 -10 -80 -3
-13 -12 -83 -20 -160 -1 -14 -5 -45 -8 -70 -12 -89 -21 -186 -21 -227 -1 -24
-3 -43 -6 -43 -3 0 -5 -12 -6 -27 -1 -26 -13 -194 -19 -273 -21 -239 -21 -653
-1 -755 2 -11 7 -49 11 -85 4 -36 9 -74 12 -85 2 -11 6 -35 8 -54 25 -175 137
-441 242 -576 80 -102 199 -188 313 -223 148 -46 397 -58 563 -27 15 3 37 7
50 9 86 16 228 62 317 104 86 41 273 151 278 164 2 4 8 8 13 8 8 0 45 25 114
77 188 143 406 361 591 592 73 91 207 282 235 336 12 22 24 42 28 45 3 3 11
14 18 25 6 11 48 80 92 153 45 74 81 138 81 143 0 5 5 9 10 9 6 0 10 4 10 9 0
6 36 74 80 153 44 78 80 148 80 155 0 6 3 13 8 15 10 4 142 273 207 423 27 63
76 186 76 192 1 1 16 33 35 70 l34 68 -43 18 c-23 10 -49 20 -58 22 -9 2 -25
8 -35 13 -40 21 -127 52 -134 47 -4 -2 -20 -31 -35 -62 -63 -133 -152 -312
-181 -365 -18 -31 -30 -59 -26 -62 3 -3 1 -6 -5 -6 -6 0 -13 -8 -17 -17 -3
-10 -10 -25 -15 -33 -6 -8 -52 -87 -102 -175 -51 -88 -143 -238 -205 -333
-113 -172 -123 -186 -156 -223 -10 -10 -18 -21 -18 -24 0 -11 -155 -210 -225
-290 -74 -85 -184 -192 -275 -269 -56 -48 -161 -121 -170 -119 -3 0 -16 -7
-30 -17 -46 -32 -145 -60 -199 -56 -184 16 -265 218 -264 661 0 124 9 326 18
390 2 17 7 64 10 105 12 144 24 255 30 292 2 9 6 45 9 80 3 34 8 72 10 84 2
12 7 45 11 75 3 30 8 65 10 79 16 98 19 139 20 250 0 114 -5 169 -21 225 -12
41 -67 155 -75 155 -5 0 -9 6 -9 13 0 19 -96 116 -150 154 -52 35 -171 93
-192 93 -8 0 -18 4 -24 9 -9 8 -72 26 -126 36 -16 3 -38 7 -50 9 -81 15 -428
31 -440 21z"/>
</g>
</svg>
